<svg xmlns="http://www.w3.org/2000/svg" viewBox="0 0 64 64">
  <!-- Background circle -->
  <circle cx="32" cy="32" r="30" fill="#b8868e" opacity="0.12"/>

  <!-- Large round table with thick stroke -->
  <circle cx="32" cy="30" r="14" fill="none" stroke="#b8868e" stroke-width="3"/>

  <!-- Tablecloth fill -->
  <circle cx="32" cy="30" r="10" fill="#f8f0e8" stroke="none"/>

  <!-- Single prominent flower in center (simplified 5-petal) -->
  <circle cx="32" cy="30" r="3.5" fill="#c9a66b"/>
  <circle cx="32" cy="25.5" r="2.2" fill="#b8868e" opacity="0.65"/>
  <circle cx="36.1" cy="27.3" r="2.2" fill="#b8868e" opacity="0.55"/>
  <circle cx="36.1" cy="32.7" r="2.2" fill="#b8868e" opacity="0.55"/>
  <circle cx="32" cy="34.5" r="2.2" fill="#b8868e" opacity="0.65"/>
  <circle cx="27.9" cy="32.7" r="2.2" fill="#b8868e" opacity="0.55"/>
  <circle cx="27.9" cy="27.3" r="2.2" fill="#b8868e" opacity="0.55"/>

  <!-- 6 seat indicators (larger, clearly seats not gear teeth) -->
  <!-- Top -->
  <rect x="29.5" y="13" width="5" height="4" rx="2" fill="#b8868e" opacity="0.7"/>
  <!-- Top-right -->
  <rect x="43" y="23.5" width="4" height="5" rx="2" fill="#b8868e" opacity="0.65" transform="rotate(30 45 26)"/>
  <!-- Bottom-right -->
  <rect x="43" y="37.5" width="4" height="5" rx="2" fill="#b8868e" opacity="0.65" transform="rotate(-30 45 40)"/>
  <!-- Bottom -->
  <rect x="29.5" y="43" width="5" height="4" rx="2" fill="#b8868e" opacity="0.7"/>
  <!-- Bottom-left -->
  <rect x="17" y="37.5" width="4" height="5" rx="2" fill="#b8868e" opacity="0.65" transform="rotate(30 19 40)"/>
  <!-- Top-left -->
  <rect x="17" y="23.5" width="4" height="5" rx="2" fill="#b8868e" opacity="0.65" transform="rotate(-30 19 26)"/>
</svg>
